<svg xmlns="http://www.w3.org/2000/svg" xmlns:xlink="http://www.w3.org/1999/xlink" width="1920" zoomAndPan="magnify" viewBox="0 0 1440 320.999992" height="428" preserveAspectRatio="xMidYMid meet" version="1.0"><defs><g/><clipPath id="ccf60e8e37"><path d="M 0 0 L 1438.789062 0 L 1438.789062 321 L 0 321 Z M 0 0 " clip-rule="nonzero"/></clipPath><clipPath id="192ff8f6ce"><path d="M 0 0 L 1438.789062 0 L 1438.789062 321 L 0 321 Z M 0 0 " clip-rule="nonzero"/></clipPath><clipPath id="ba1a864bb1"><rect x="0" width="1439" y="0" height="321"/></clipPath><clipPath id="5938396608"><rect x="0" width="537" y="0" height="96"/></clipPath></defs><rect x="-144" width="1728" fill="#ffffff" y="-32.099999" height="385.19999" fill-opacity="1"/><rect x="-144" width="1728" fill="#ffffff" y="-32.099999" height="385.19999" fill-opacity="1"/><g clip-path="url(#ccf60e8e37)"><g transform="matrix(1, 0, 0, 1, 0, 0)"><g clip-path="url(#ba1a864bb1)"><g clip-path="url(#192ff8f6ce)"><path fill="#ffffff" d="M 0 0 L 1438.230469 0 L 1438.230469 321 L 0 321 Z M 0 0 " fill-opacity="1" fill-rule="nonzero"/></g></g></g></g><g fill="#373a3a" fill-opacity="1"><g transform="translate(36.257828, 206.249986)"><g><path d="M 10.109375 0 L 10.109375 -86.453125 L 39.9375 -86.453125 L 39.9375 -73.984375 L 40.28125 -73.984375 C 40.5 -74.429688 40.859375 -74.992188 41.359375 -75.671875 C 41.867188 -76.347656 42.96875 -77.523438 44.65625 -79.203125 C 46.34375 -80.890625 48.140625 -82.40625 50.046875 -83.75 C 51.960938 -85.101562 54.4375 -86.3125 57.46875 -87.375 C 60.5 -88.445312 63.585938 -88.984375 66.734375 -88.984375 C 69.992188 -88.984375 73.195312 -88.53125 76.34375 -87.625 C 79.488281 -86.726562 81.789062 -85.832031 83.25 -84.9375 L 85.609375 -83.59375 L 73.140625 -58.3125 C 69.429688 -61.457031 64.265625 -63.03125 57.640625 -63.03125 C 54.046875 -63.03125 50.957031 -62.242188 48.375 -60.671875 C 45.789062 -59.097656 43.960938 -57.1875 42.890625 -54.9375 C 41.828125 -52.695312 41.066406 -50.789062 40.609375 -49.21875 C 40.160156 -47.644531 39.9375 -46.40625 39.9375 -45.5 L 39.9375 0 Z M 10.109375 0 "/></g></g></g><g fill="#373a3a" fill-opacity="1"><g transform="translate(120.18442, 206.249986)"><g><path d="M 75.671875 -86.453125 L 110.046875 -86.453125 L 42.125 43.8125 L 7.75 43.8125 L 37.578125 -13.484375 L -3.375 -86.453125 L 31.015625 -86.453125 L 55.109375 -42.125 Z M 75.671875 -86.453125 "/></g></g></g><g fill="#373a3a" fill-opacity="1"><g transform="translate(226.862197, 206.249986)"><g><path d="M 16 -10.703125 C 7.914062 -19.523438 3.875 -30.335938 3.875 -43.140625 C 3.875 -55.953125 7.914062 -66.796875 16 -75.671875 C 24.09375 -84.546875 34.378906 -88.984375 46.859375 -88.984375 C 58.316406 -88.984375 67.753906 -85.390625 75.171875 -78.203125 L 75.171875 -86.453125 L 105 -86.453125 L 105 0 L 75.5 0 L 75.5 -9.78125 L 75.171875 -9.78125 C 67.753906 -1.570312 58.316406 2.53125 46.859375 2.53125 C 34.378906 2.53125 24.09375 -1.878906 16 -10.703125 Z M 41.375 -57.796875 C 37.5 -53.984375 35.5625 -49.097656 35.5625 -43.140625 C 35.5625 -37.191406 37.414062 -32.332031 41.125 -28.5625 C 44.832031 -24.800781 49.71875 -22.921875 55.78125 -22.921875 C 61.625 -22.921875 66.425781 -24.828125 70.1875 -28.640625 C 73.957031 -32.460938 75.84375 -37.296875 75.84375 -43.140625 C 75.84375 -49.097656 73.898438 -53.984375 70.015625 -57.796875 C 66.140625 -61.617188 61.394531 -63.53125 55.78125 -63.53125 C 50.050781 -63.53125 45.25 -61.617188 41.375 -57.796875 Z M 41.375 -57.796875 "/></g></g></g><g fill="#373a3a" fill-opacity="1"><g transform="translate(341.966349, 206.249986)"><g><path d="M 10.109375 0 L 10.109375 -86.453125 L 39.9375 -86.453125 L 39.9375 -77.359375 L 40.28125 -77.359375 C 48.03125 -85.109375 56.285156 -88.984375 65.046875 -88.984375 C 69.316406 -88.984375 73.554688 -88.421875 77.765625 -87.296875 C 81.984375 -86.171875 86.03125 -84.425781 89.90625 -82.0625 C 93.78125 -79.707031 96.925781 -76.367188 99.34375 -72.046875 C 101.757812 -67.722656 102.96875 -62.695312 102.96875 -56.96875 L 102.96875 0 L 73.140625 0 L 73.140625 -48.875 C 73.140625 -53.363281 71.707031 -57.296875 68.84375 -60.671875 C 65.976562 -64.046875 62.242188 -65.734375 57.640625 -65.734375 C 53.140625 -65.734375 49.0625 -63.988281 45.40625 -60.5 C 41.757812 -57.019531 39.9375 -53.144531 39.9375 -48.875 L 39.9375 0 Z M 10.109375 0 "/></g></g></g><g fill="#373a3a" fill-opacity="1"><g transform="translate(453.362903, 206.249986)"><g><path d="M 15.171875 -86.453125 L 15.171875 -118.640625 L 45 -118.640625 L 45 -86.453125 L 63.203125 -86.453125 L 63.203125 -63.703125 L 45 -63.703125 L 45 -36.234375 C 45 -28.253906 47.242188 -24.265625 51.734375 -24.265625 C 52.859375 -24.265625 54.035156 -24.488281 55.265625 -24.9375 C 56.503906 -25.382812 57.460938 -25.835938 58.140625 -26.296875 L 59.15625 -26.96875 L 66.5625 -2.859375 C 60.164062 0.734375 52.863281 2.53125 44.65625 2.53125 C 39.039062 2.53125 34.207031 1.546875 30.15625 -0.421875 C 26.113281 -2.390625 23.050781 -5.03125 20.96875 -8.34375 C 18.894531 -11.65625 17.410156 -15.132812 16.515625 -18.78125 C 15.617188 -22.4375 15.171875 -26.34375 15.171875 -30.5 L 15.171875 -63.703125 L 2.703125 -63.703125 L 2.703125 -86.453125 Z M 15.171875 -86.453125 "/></g></g></g><g fill="#373a3a" fill-opacity="1"><g transform="translate(519.931166, 206.249986)"><g><path d="M 97.578125 -39.09375 L 34.890625 -39.09375 C 34.890625 -33.03125 36.851562 -28.535156 40.78125 -25.609375 C 44.71875 -22.691406 48.988281 -21.234375 53.59375 -21.234375 C 58.425781 -21.234375 62.242188 -21.878906 65.046875 -23.171875 C 67.859375 -24.460938 71.0625 -27.019531 74.65625 -30.84375 L 96.234375 -20.0625 C 87.242188 -5 72.300781 2.53125 51.40625 2.53125 C 38.375 2.53125 27.191406 -1.929688 17.859375 -10.859375 C 8.535156 -19.796875 3.875 -30.554688 3.875 -43.140625 C 3.875 -55.722656 8.535156 -66.507812 17.859375 -75.5 C 27.191406 -84.488281 38.375 -88.984375 51.40625 -88.984375 C 65.113281 -88.984375 76.265625 -85.019531 84.859375 -77.09375 C 93.453125 -69.175781 97.75 -57.859375 97.75 -43.140625 C 97.75 -41.117188 97.691406 -39.769531 97.578125 -39.09375 Z M 35.734375 -55.609375 L 68.59375 -55.609375 C 67.914062 -60.109375 66.144531 -63.566406 63.28125 -65.984375 C 60.414062 -68.398438 56.738281 -69.609375 52.25 -69.609375 C 47.300781 -69.609375 43.363281 -68.3125 40.4375 -65.71875 C 37.519531 -63.132812 35.953125 -59.765625 35.734375 -55.609375 Z M 35.734375 -55.609375 "/></g></g></g><g fill="#373a3a" fill-opacity="1"><g transform="translate(621.553138, 206.249986)"><g><path d="M 10.109375 0 L 10.109375 -86.453125 L 39.9375 -86.453125 L 39.9375 -77.359375 L 40.28125 -77.359375 C 48.03125 -85.109375 56.285156 -88.984375 65.046875 -88.984375 C 71.335938 -88.984375 77.234375 -87.691406 82.734375 -85.109375 C 88.242188 -82.523438 92.40625 -78.535156 95.21875 -73.140625 C 103.976562 -83.703125 113.53125 -88.984375 123.875 -88.984375 C 133.082031 -88.984375 141 -86.398438 147.625 -81.234375 C 154.257812 -76.066406 157.578125 -67.976562 157.578125 -56.96875 L 157.578125 0 L 127.75 0 L 127.75 -48.875 C 127.75 -53.476562 126.484375 -57.320312 123.953125 -60.40625 C 121.421875 -63.5 117.628906 -65.046875 112.578125 -65.046875 C 108.191406 -65.046875 104.847656 -63.722656 102.546875 -61.078125 C 100.242188 -58.441406 98.984375 -55.273438 98.765625 -51.578125 L 98.765625 0 L 68.921875 0 L 68.921875 -48.875 C 68.921875 -53.476562 67.65625 -57.320312 65.125 -60.40625 C 62.601562 -63.5 58.816406 -65.046875 53.765625 -65.046875 C 49.160156 -65.046875 45.703125 -63.613281 43.390625 -60.75 C 41.085938 -57.882812 39.9375 -54.488281 39.9375 -50.5625 L 39.9375 0 Z M 10.109375 0 "/></g></g></g><g fill="#373a3a" fill-opacity="1"><g transform="translate(787.552517, 206.249986)"><g><path d="M 99.09375 -75.75 C 107.1875 -66.9375 111.234375 -56.125 111.234375 -43.3125 C 111.234375 -30.5 107.1875 -19.65625 99.09375 -10.78125 C 91.007812 -1.90625 80.726562 2.53125 68.25 2.53125 C 56.789062 2.53125 47.351562 -1.066406 39.9375 -8.265625 L 39.9375 43.8125 L 10.109375 43.8125 L 10.109375 -86.453125 L 39.609375 -86.453125 L 39.609375 -76.6875 L 39.9375 -76.6875 C 47.351562 -84.882812 56.789062 -88.984375 68.25 -88.984375 C 80.726562 -88.984375 91.007812 -84.570312 99.09375 -75.75 Z M 73.734375 -28.640625 C 77.609375 -32.460938 79.546875 -37.351562 79.546875 -43.3125 C 79.546875 -49.269531 77.691406 -54.128906 73.984375 -57.890625 C 70.273438 -61.648438 65.390625 -63.53125 59.328125 -63.53125 C 53.484375 -63.53125 48.675781 -61.617188 44.90625 -57.796875 C 41.144531 -53.984375 39.265625 -49.15625 39.265625 -43.3125 C 39.265625 -37.351562 41.203125 -32.460938 45.078125 -28.640625 C 48.953125 -24.828125 53.703125 -22.921875 59.328125 -22.921875 C 65.054688 -22.921875 69.859375 -24.828125 73.734375 -28.640625 Z M 73.734375 -28.640625 "/></g></g></g><g fill="#373a3a" fill-opacity="1"><g transform="translate(902.656636, 206.249986)"><g><path d="M 10.109375 0 L 10.109375 -144.9375 L 39.9375 -144.9375 L 39.9375 0 Z M 10.109375 0 "/></g></g></g><g fill="#373a3a" fill-opacity="1"><g transform="translate(952.709244, 206.249986)"><g><path d="M 97.578125 -39.09375 L 34.890625 -39.09375 C 34.890625 -33.03125 36.851562 -28.535156 40.78125 -25.609375 C 44.71875 -22.691406 48.988281 -21.234375 53.59375 -21.234375 C 58.425781 -21.234375 62.242188 -21.878906 65.046875 -23.171875 C 67.859375 -24.460938 71.0625 -27.019531 74.65625 -30.84375 L 96.234375 -20.0625 C 87.242188 -5 72.300781 2.53125 51.40625 2.53125 C 38.375 2.53125 27.191406 -1.929688 17.859375 -10.859375 C 8.535156 -19.796875 3.875 -30.554688 3.875 -43.140625 C 3.875 -55.722656 8.535156 -66.507812 17.859375 -75.5 C 27.191406 -84.488281 38.375 -88.984375 51.40625 -88.984375 C 65.113281 -88.984375 76.265625 -85.019531 84.859375 -77.09375 C 93.453125 -69.175781 97.75 -57.859375 97.75 -43.140625 C 97.75 -41.117188 97.691406 -39.769531 97.578125 -39.09375 Z M 35.734375 -55.609375 L 68.59375 -55.609375 C 67.914062 -60.109375 66.144531 -63.566406 63.28125 -65.984375 C 60.414062 -68.398438 56.738281 -69.609375 52.25 -69.609375 C 47.300781 -69.609375 43.363281 -68.3125 40.4375 -65.71875 C 37.519531 -63.132812 35.953125 -59.765625 35.734375 -55.609375 Z M 35.734375 -55.609375 "/></g></g></g><g fill="#373a3a" fill-opacity="1"><g transform="translate(1054.331216, 206.249986)"><g><path d="M 15.171875 -86.453125 L 15.171875 -118.640625 L 45 -118.640625 L 45 -86.453125 L 63.203125 -86.453125 L 63.203125 -63.703125 L 45 -63.703125 L 45 -36.234375 C 45 -28.253906 47.242188 -24.265625 51.734375 -24.265625 C 52.859375 -24.265625 54.035156 -24.488281 55.265625 -24.9375 C 56.503906 -25.382812 57.460938 -25.835938 58.140625 -26.296875 L 59.15625 -26.96875 L 66.5625 -2.859375 C 60.164062 0.734375 52.863281 2.53125 44.65625 2.53125 C 39.039062 2.53125 34.207031 1.546875 30.15625 -0.421875 C 26.113281 -2.390625 23.050781 -5.03125 20.96875 -8.34375 C 18.894531 -11.65625 17.410156 -15.132812 16.515625 -18.78125 C 15.617188 -22.4375 15.171875 -26.34375 15.171875 -30.5 L 15.171875 -63.703125 L 2.703125 -63.703125 L 2.703125 -86.453125 Z M 15.171875 -86.453125 "/></g></g></g><g fill="#373a3a" fill-opacity="1"><g transform="translate(1120.89948, 206.249986)"><g><path d="M 18.28125 -10.28125 C 8.675781 -18.820312 3.875 -29.773438 3.875 -43.140625 C 3.875 -56.515625 8.875 -67.5 18.875 -76.09375 C 28.875 -84.6875 41.234375 -88.984375 55.953125 -88.984375 C 70.441406 -88.984375 82.65625 -84.65625 92.59375 -76 C 102.539062 -67.351562 107.515625 -56.398438 107.515625 -43.140625 C 107.515625 -29.878906 102.65625 -18.953125 92.9375 -10.359375 C 83.21875 -1.765625 70.890625 2.53125 55.953125 2.53125 C 40.441406 2.53125 27.882812 -1.738281 18.28125 -10.28125 Z M 41.375 -57.796875 C 37.5 -53.984375 35.5625 -49.097656 35.5625 -43.140625 C 35.5625 -37.191406 37.414062 -32.332031 41.125 -28.5625 C 44.832031 -24.800781 49.71875 -22.921875 55.78125 -22.921875 C 61.625 -22.921875 66.425781 -24.828125 70.1875 -28.640625 C 73.957031 -32.460938 75.84375 -37.296875 75.84375 -43.140625 C 75.84375 -49.097656 73.898438 -53.984375 70.015625 -57.796875 C 66.140625 -61.617188 61.394531 -63.53125 55.78125 -63.53125 C 50.050781 -63.53125 45.25 -61.617188 41.375 -57.796875 Z M 41.375 -57.796875 "/></g></g></g><g fill="#373a3a" fill-opacity="1"><g transform="translate(1232.296079, 206.249986)"><g><path d="M 10.109375 0 L 10.109375 -86.453125 L 39.9375 -86.453125 L 39.9375 -77.359375 L 40.28125 -77.359375 C 48.03125 -85.109375 56.285156 -88.984375 65.046875 -88.984375 C 69.316406 -88.984375 73.554688 -88.421875 77.765625 -87.296875 C 81.984375 -86.171875 86.03125 -84.425781 89.90625 -82.0625 C 93.78125 -79.707031 96.925781 -76.367188 99.34375 -72.046875 C 101.757812 -67.722656 102.96875 -62.695312 102.96875 -56.96875 L 102.96875 0 L 73.140625 0 L 73.140625 -48.875 C 73.140625 -53.363281 71.707031 -57.296875 68.84375 -60.671875 C 65.976562 -64.046875 62.242188 -65.734375 57.640625 -65.734375 C 53.140625 -65.734375 49.0625 -63.988281 45.40625 -60.5 C 41.757812 -57.019531 39.9375 -53.144531 39.9375 -48.875 L 39.9375 0 Z M 10.109375 0 "/></g></g></g><g fill="#373a3a" fill-opacity="1"><g transform="translate(1343.692587, 206.249986)"><g><path d="M 29.328125 -36.0625 C 34.710938 -36.0625 39.285156 -34.179688 43.046875 -30.421875 C 46.816406 -26.660156 48.703125 -22.082031 48.703125 -16.6875 C 48.703125 -11.40625 46.816406 -6.878906 43.046875 -3.109375 C 39.285156 0.648438 34.710938 2.53125 29.328125 2.53125 C 24.046875 2.53125 19.519531 0.648438 15.75 -3.109375 C 11.988281 -6.878906 10.109375 -11.40625 10.109375 -16.6875 C 10.109375 -22.082031 11.988281 -26.660156 15.75 -30.421875 C 19.519531 -34.179688 24.046875 -36.0625 29.328125 -36.0625 Z M 29.328125 -36.0625 "/></g></g></g><g transform="matrix(1, 0, 0, 1, 865, 222)"><g clip-path="url(#5938396608)"><g fill="#373a3a" fill-opacity="1"><g transform="translate(1.235573, 73.998794)"><g><path d="M 27.296875 -41.53125 C 25.285156 -41.53125 23.503906 -41.140625 21.953125 -40.359375 C 20.398438 -39.578125 19.097656 -38.453125 18.046875 -36.984375 C 17.003906 -35.515625 16.207031 -33.738281 15.65625 -31.65625 C 15.113281 -29.582031 14.84375 -27.25 14.84375 -24.65625 C 14.84375 -21.144531 15.28125 -18.148438 16.15625 -15.671875 C 17.03125 -13.203125 18.378906 -11.316406 20.203125 -10.015625 C 22.035156 -8.710938 24.398438 -8.0625 27.296875 -8.0625 C 29.304688 -8.0625 31.320312 -8.285156 33.34375 -8.734375 C 35.363281 -9.191406 37.5625 -9.84375 39.9375 -10.6875 L 39.9375 -1.859375 C 37.75 -0.960938 35.59375 -0.316406 33.46875 0.078125 C 31.34375 0.472656 28.957031 0.671875 26.3125 0.671875 C 21.195312 0.671875 16.992188 -0.378906 13.703125 -2.484375 C 10.421875 -4.597656 7.988281 -7.5625 6.40625 -11.375 C 4.820312 -15.1875 4.03125 -19.632812 4.03125 -24.71875 C 4.03125 -28.46875 4.539062 -31.898438 5.5625 -35.015625 C 6.582031 -38.140625 8.070312 -40.84375 10.03125 -43.125 C 12 -45.40625 14.429688 -47.164062 17.328125 -48.40625 C 20.222656 -49.65625 23.546875 -50.28125 27.296875 -50.28125 C 29.753906 -50.28125 32.222656 -49.96875 34.703125 -49.34375 C 37.179688 -48.726562 39.550781 -47.875 41.8125 -46.78125 L 38.421875 -38.25 C 36.566406 -39.125 34.695312 -39.890625 32.8125 -40.546875 C 30.9375 -41.203125 29.097656 -41.53125 27.296875 -41.53125 Z M 27.296875 -41.53125 "/></g></g></g><g fill="#373a3a" fill-opacity="1"><g transform="translate(81.558602, 73.998794)"><g><path d="M 46.859375 0 L 36.375 0 L 36.375 -21.390625 L 16.75 -21.390625 L 16.75 0 L 6.234375 0 L 6.234375 -49.5625 L 16.75 -49.5625 L 16.75 -30.140625 L 36.375 -30.140625 L 36.375 -49.5625 L 46.859375 -49.5625 Z M 46.859375 0 "/></g></g></g><g fill="#373a3a" fill-opacity="1"><g transform="translate(170.768688, 73.998794)"><g><path d="M 6.234375 0 L 6.234375 -49.5625 L 16.75 -49.5625 L 16.75 0 Z M 6.234375 0 "/></g></g></g><g fill="#373a3a" fill-opacity="1"><g transform="translate(229.840067, 73.998794)"><g><path d="M 27.296875 -41.53125 C 25.285156 -41.53125 23.503906 -41.140625 21.953125 -40.359375 C 20.398438 -39.578125 19.097656 -38.453125 18.046875 -36.984375 C 17.003906 -35.515625 16.207031 -33.738281 15.65625 -31.65625 C 15.113281 -29.582031 14.84375 -27.25 14.84375 -24.65625 C 14.84375 -21.144531 15.28125 -18.148438 16.15625 -15.671875 C 17.03125 -13.203125 18.378906 -11.316406 20.203125 -10.015625 C 22.035156 -8.710938 24.398438 -8.0625 27.296875 -8.0625 C 29.304688 -8.0625 31.320312 -8.285156 33.34375 -8.734375 C 35.363281 -9.191406 37.5625 -9.84375 39.9375 -10.6875 L 39.9375 -1.859375 C 37.75 -0.960938 35.59375 -0.316406 33.46875 0.078125 C 31.34375 0.472656 28.957031 0.671875 26.3125 0.671875 C 21.195312 0.671875 16.992188 -0.378906 13.703125 -2.484375 C 10.421875 -4.597656 7.988281 -7.5625 6.40625 -11.375 C 4.820312 -15.1875 4.03125 -19.632812 4.03125 -24.71875 C 4.03125 -28.46875 4.539062 -31.898438 5.5625 -35.015625 C 6.582031 -38.140625 8.070312 -40.84375 10.03125 -43.125 C 12 -45.40625 14.429688 -47.164062 17.328125 -48.40625 C 20.222656 -49.65625 23.546875 -50.28125 27.296875 -50.28125 C 29.753906 -50.28125 32.222656 -49.96875 34.703125 -49.34375 C 37.179688 -48.726562 39.550781 -47.875 41.8125 -46.78125 L 38.421875 -38.25 C 36.566406 -39.125 34.695312 -39.890625 32.8125 -40.546875 C 30.9375 -41.203125 29.097656 -41.53125 27.296875 -41.53125 Z M 27.296875 -41.53125 "/></g></g></g><g fill="#373a3a" fill-opacity="1"><g transform="translate(310.163097, 73.998794)"><g><path d="M 36.578125 0 L 32.984375 -11.796875 L 14.921875 -11.796875 L 11.328125 0 L 0 0 L 17.5 -49.765625 L 30.34375 -49.765625 L 47.90625 0 Z M 30.484375 -20.609375 L 26.890625 -32.140625 C 26.660156 -32.910156 26.359375 -33.898438 25.984375 -35.109375 C 25.609375 -36.316406 25.234375 -37.546875 24.859375 -38.796875 C 24.492188 -40.054688 24.195312 -41.148438 23.96875 -42.078125 C 23.738281 -41.148438 23.425781 -40 23.03125 -38.625 C 22.632812 -37.257812 22.253906 -35.96875 21.890625 -34.75 C 21.535156 -33.53125 21.28125 -32.660156 21.125 -32.140625 L 17.5625 -20.609375 Z M 30.484375 -20.609375 "/></g></g></g><g fill="#373a3a" fill-opacity="1"><g transform="translate(394.151015, 73.998794)"><g><path d="M 25.0625 -27.84375 L 44.71875 -27.84375 L 44.71875 -2.140625 C 42.125 -1.273438 39.421875 -0.585938 36.609375 -0.078125 C 33.804688 0.421875 30.632812 0.671875 27.09375 0.671875 C 22.164062 0.671875 17.984375 -0.296875 14.546875 -2.234375 C 11.109375 -4.179688 8.492188 -7.050781 6.703125 -10.84375 C 4.921875 -14.644531 4.03125 -19.316406 4.03125 -24.859375 C 4.03125 -30.054688 5.03125 -34.550781 7.03125 -38.34375 C 9.03125 -42.144531 11.957031 -45.082031 15.8125 -47.15625 C 19.664062 -49.238281 24.375 -50.28125 29.9375 -50.28125 C 32.5625 -50.28125 35.148438 -49.992188 37.703125 -49.421875 C 40.253906 -48.859375 42.570312 -48.128906 44.65625 -47.234375 L 41.15625 -38.828125 C 39.644531 -39.585938 37.914062 -40.226562 35.96875 -40.75 C 34.03125 -41.269531 32 -41.53125 29.875 -41.53125 C 26.820312 -41.53125 24.171875 -40.828125 21.921875 -39.421875 C 19.671875 -38.023438 17.925781 -36.066406 16.6875 -33.546875 C 15.457031 -31.023438 14.84375 -28.0625 14.84375 -24.65625 C 14.84375 -21.414062 15.285156 -18.546875 16.171875 -16.046875 C 17.054688 -13.554688 18.445312 -11.601562 20.34375 -10.1875 C 22.238281 -8.769531 24.710938 -8.0625 27.765625 -8.0625 C 29.253906 -8.0625 30.515625 -8.132812 31.546875 -8.28125 C 32.578125 -8.4375 33.546875 -8.59375 34.453125 -8.75 L 34.453125 -19.09375 L 25.0625 -19.09375 Z M 25.0625 -27.84375 "/></g></g></g><g fill="#373a3a" fill-opacity="1"><g transform="translate(480.515836, 73.998794)"><g><path d="M 51.234375 -24.859375 C 51.234375 -21.035156 50.753906 -17.554688 49.796875 -14.421875 C 48.847656 -11.296875 47.40625 -8.601562 45.46875 -6.34375 C 43.539062 -4.082031 41.097656 -2.347656 38.140625 -1.140625 C 35.179688 0.0664062 31.675781 0.671875 27.625 0.671875 C 23.582031 0.671875 20.082031 0.0664062 17.125 -1.140625 C 14.164062 -2.347656 11.71875 -4.082031 9.78125 -6.34375 C 7.84375 -8.601562 6.398438 -11.300781 5.453125 -14.4375 C 4.503906 -17.582031 4.03125 -21.078125 4.03125 -24.921875 C 4.03125 -30.046875 4.875 -34.515625 6.5625 -38.328125 C 8.25 -42.140625 10.84375 -45.09375 14.34375 -47.1875 C 17.84375 -49.289062 22.296875 -50.34375 27.703125 -50.34375 C 33.078125 -50.34375 37.5 -49.289062 40.96875 -47.1875 C 44.4375 -45.09375 47.015625 -42.132812 48.703125 -38.3125 C 50.390625 -34.488281 51.234375 -30.003906 51.234375 -24.859375 Z M 15.046875 -24.859375 C 15.046875 -21.398438 15.484375 -18.421875 16.359375 -15.921875 C 17.234375 -13.421875 18.59375 -11.5 20.4375 -10.15625 C 22.289062 -8.8125 24.6875 -8.140625 27.625 -8.140625 C 30.613281 -8.140625 33.035156 -8.8125 34.890625 -10.15625 C 36.742188 -11.5 38.09375 -13.421875 38.9375 -15.921875 C 39.789062 -18.421875 40.21875 -21.398438 40.21875 -24.859375 C 40.21875 -30.054688 39.242188 -34.144531 37.296875 -37.125 C 35.347656 -40.101562 32.148438 -41.59375 27.703125 -41.59375 C 24.742188 -41.59375 22.332031 -40.921875 20.46875 -39.578125 C 18.601562 -38.234375 17.234375 -36.3125 16.359375 -33.8125 C 15.484375 -31.320312 15.046875 -28.335938 15.046875 -24.859375 Z M 15.046875 -24.859375 "/></g></g></g></g></g></svg>
